<mxfile host="app.diagrams.net" modified="2023-06-23T17:40:21.518Z" agent="Mozilla/5.0 (Windows NT 10.0; Win64; x64) AppleWebKit/537.36 (KHTML, like Gecko) Chrome/114.0.0.0 Safari/537.36" etag="YK942YAT-IS57ndFlft3" version="21.5.0" type="github">
  <diagram id="prtHgNgQTEPvFCAcTncT" name="Page-1">
    <mxGraphModel dx="875" dy="-733" grid="1" gridSize="10" guides="1" tooltips="1" connect="1" arrows="1" fold="1" page="1" pageScale="1" pageWidth="827" pageHeight="1169" math="0" shadow="0">
      <root>
        <mxCell id="0" />
        <mxCell id="1" parent="0" />
        <mxCell id="_h5gXEfDTmND23jowzLp-17" value="Actor" style="shape=umlActor;verticalLabelPosition=bottom;verticalAlign=top;html=1;outlineConnect=0;" vertex="1" parent="1">
          <mxGeometry x="90" y="1490" width="30" height="60" as="geometry" />
        </mxCell>
        <mxCell id="_h5gXEfDTmND23jowzLp-18" value="Thêm sửa xóa chương truyện" style="ellipse;whiteSpace=wrap;html=1;" vertex="1" parent="1">
          <mxGeometry x="170" y="1340" width="140" height="70" as="geometry" />
        </mxCell>
        <mxCell id="_h5gXEfDTmND23jowzLp-19" value="Thêm sửa xóa truyện" style="ellipse;whiteSpace=wrap;html=1;" vertex="1" parent="1">
          <mxGeometry x="190" y="1440" width="140" height="60" as="geometry" />
        </mxCell>
        <mxCell id="_h5gXEfDTmND23jowzLp-20" value="Đăng nhập" style="ellipse;whiteSpace=wrap;html=1;" vertex="1" parent="1">
          <mxGeometry x="515" y="1509" width="140" height="60" as="geometry" />
        </mxCell>
        <mxCell id="_h5gXEfDTmND23jowzLp-21" value="Xem truyện" style="ellipse;whiteSpace=wrap;html=1;" vertex="1" parent="1">
          <mxGeometry x="130" y="1640" width="140" height="70" as="geometry" />
        </mxCell>
        <mxCell id="_h5gXEfDTmND23jowzLp-22" value="Đăng ký tài khoản" style="ellipse;whiteSpace=wrap;html=1;" vertex="1" parent="1">
          <mxGeometry x="515" y="1380" width="130" height="70" as="geometry" />
        </mxCell>
        <mxCell id="_h5gXEfDTmND23jowzLp-23" value="Tìm kiếm truyện" style="ellipse;whiteSpace=wrap;html=1;" vertex="1" parent="1">
          <mxGeometry x="200" y="1530" width="140" height="60" as="geometry" />
        </mxCell>
        <mxCell id="_h5gXEfDTmND23jowzLp-24" value="&amp;lt;&amp;lt;include&amp;gt;&amp;gt;" style="html=1;verticalAlign=bottom;endArrow=open;dashed=1;endSize=8;elbow=vertical;rounded=0;exitX=0.983;exitY=0.69;exitDx=0;exitDy=0;exitPerimeter=0;" edge="1" parent="1" source="_h5gXEfDTmND23jowzLp-18" target="_h5gXEfDTmND23jowzLp-20">
          <mxGeometry relative="1" as="geometry">
            <mxPoint x="330" y="1396.96" as="sourcePoint" />
            <mxPoint x="550.28" y="1450" as="targetPoint" />
          </mxGeometry>
        </mxCell>
        <mxCell id="_h5gXEfDTmND23jowzLp-25" value="&amp;lt;&amp;lt;extent&amp;gt;&amp;gt;" style="html=1;verticalAlign=bottom;endArrow=open;dashed=1;endSize=8;elbow=vertical;rounded=0;exitX=0.574;exitY=1.014;exitDx=0;exitDy=0;exitPerimeter=0;" edge="1" parent="1" source="_h5gXEfDTmND23jowzLp-22" target="_h5gXEfDTmND23jowzLp-20">
          <mxGeometry relative="1" as="geometry">
            <mxPoint x="570" y="1450" as="sourcePoint" />
            <mxPoint x="690" y="1610" as="targetPoint" />
            <mxPoint as="offset" />
          </mxGeometry>
        </mxCell>
        <mxCell id="_h5gXEfDTmND23jowzLp-27" value="&amp;lt;&amp;lt;include&amp;gt;&amp;gt;" style="html=1;verticalAlign=bottom;endArrow=open;dashed=1;endSize=8;elbow=vertical;rounded=0;exitX=1;exitY=0.5;exitDx=0;exitDy=0;entryX=0.062;entryY=0.733;entryDx=0;entryDy=0;entryPerimeter=0;" edge="1" parent="1" source="_h5gXEfDTmND23jowzLp-23" target="_h5gXEfDTmND23jowzLp-20">
          <mxGeometry relative="1" as="geometry">
            <mxPoint x="390" y="1690" as="sourcePoint" />
            <mxPoint x="575" y="1759" as="targetPoint" />
          </mxGeometry>
        </mxCell>
        <mxCell id="_h5gXEfDTmND23jowzLp-28" value="" style="endArrow=classic;html=1;rounded=0;exitX=1;exitY=1;exitDx=0;exitDy=0;exitPerimeter=0;entryX=0.455;entryY=0.033;entryDx=0;entryDy=0;entryPerimeter=0;" edge="1" parent="1" source="_h5gXEfDTmND23jowzLp-17" target="_h5gXEfDTmND23jowzLp-21">
          <mxGeometry width="50" height="50" relative="1" as="geometry">
            <mxPoint x="20" y="1630" as="sourcePoint" />
            <mxPoint x="70" y="1580" as="targetPoint" />
          </mxGeometry>
        </mxCell>
        <mxCell id="_h5gXEfDTmND23jowzLp-29" value="" style="endArrow=classic;html=1;rounded=0;entryX=0;entryY=0.5;entryDx=0;entryDy=0;" edge="1" parent="1" source="_h5gXEfDTmND23jowzLp-17" target="_h5gXEfDTmND23jowzLp-19">
          <mxGeometry width="50" height="50" relative="1" as="geometry">
            <mxPoint x="130" y="1560" as="sourcePoint" />
            <mxPoint x="210" y="1570" as="targetPoint" />
          </mxGeometry>
        </mxCell>
        <mxCell id="_h5gXEfDTmND23jowzLp-30" value="" style="endArrow=classic;html=1;rounded=0;entryX=0;entryY=1;entryDx=0;entryDy=0;exitX=0.75;exitY=0.1;exitDx=0;exitDy=0;exitPerimeter=0;" edge="1" parent="1" source="_h5gXEfDTmND23jowzLp-17" target="_h5gXEfDTmND23jowzLp-18">
          <mxGeometry width="50" height="50" relative="1" as="geometry">
            <mxPoint x="130" y="1521" as="sourcePoint" />
            <mxPoint x="200" y="1480" as="targetPoint" />
          </mxGeometry>
        </mxCell>
        <mxCell id="_h5gXEfDTmND23jowzLp-31" value="" style="endArrow=classic;html=1;rounded=0;" edge="1" parent="1" source="_h5gXEfDTmND23jowzLp-17" target="_h5gXEfDTmND23jowzLp-23">
          <mxGeometry width="50" height="50" relative="1" as="geometry">
            <mxPoint x="130" y="1560" as="sourcePoint" />
            <mxPoint x="210" y="1570" as="targetPoint" />
          </mxGeometry>
        </mxCell>
        <mxCell id="_h5gXEfDTmND23jowzLp-34" value="&amp;lt;&amp;lt;include&amp;gt;&amp;gt;" style="html=1;verticalAlign=bottom;endArrow=open;dashed=1;endSize=8;elbow=vertical;rounded=0;exitX=1;exitY=0.5;exitDx=0;exitDy=0;entryX=0.019;entryY=0.383;entryDx=0;entryDy=0;entryPerimeter=0;" edge="1" parent="1" source="_h5gXEfDTmND23jowzLp-19" target="_h5gXEfDTmND23jowzLp-20">
          <mxGeometry relative="1" as="geometry">
            <mxPoint x="318" y="1398" as="sourcePoint" />
            <mxPoint x="552" y="1525" as="targetPoint" />
          </mxGeometry>
        </mxCell>
      </root>
    </mxGraphModel>
  </diagram>
</mxfile>
